<svg width="40" height="40" viewBox="0 0 40 40" fill="none" xmlns="http://www.w3.org/2000/svg">
<path d="M20 0.645161C9.31073 0.645161 0.645157 9.31074 0.645157 20C0.645157 30.6893 9.31073 39.3548 20 39.3548C30.6893 39.3548 39.3548 30.6893 39.3548 20C39.3548 9.31074 30.6893 0.645161 20 0.645161ZM7.81628 32.4515C11.0685 35.642 15.4442 37.426 20 37.4194C15.4442 37.426 11.0685 35.642 7.81628 32.4515ZM9.05084 30.9517C11.9525 33.8587 15.8928 35.4899 20 35.4839C15.8924 35.4892 11.9519 33.8571 9.05084 30.9492V30.9517ZM20 29.0323C15.0117 29.0323 10.9677 24.9883 10.9677 20C10.9677 15.0117 15.0117 10.9677 20 10.9677C24.9883 10.9677 29.0323 15.0117 29.0323 20C29.0323 24.9883 24.9883 29.0323 20 29.0323ZM20 4.51613C24.1075 4.51077 28.0478 6.14289 30.9485 9.05084C28.0478 6.14289 24.1075 4.51077 20 4.51613V4.51613ZM20 2.58064C24.621 2.57466 29.054 4.4106 32.3173 7.68271C29.054 4.4106 24.621 2.57466 20 2.58064Z" fill="#414042"/>
<path d="M20 10.9677C15.0117 10.9677 10.9677 15.0117 10.9677 20C10.9677 24.9883 15.0117 29.0323 20 29.0323C24.9883 29.0323 29.0323 24.9883 29.0323 20C29.0323 15.0117 24.9883 10.9677 20 10.9677ZM20 21.2903C19.2874 21.2903 18.7097 20.7126 18.7097 20C18.7097 19.2874 19.2874 18.7097 20 18.7097C20.7126 18.7097 21.2903 19.2874 21.2903 20C21.2903 20.7126 20.7126 21.2903 20 21.2903Z" fill="#1ED760"/>
<path d="M21.2903 20C21.2903 20.7126 20.7126 21.2903 20 21.2903C19.2874 21.2903 18.7097 20.7126 18.7097 20C18.7097 19.2874 19.2874 18.7097 20 18.7097C20.7126 18.7097 21.2903 19.2874 21.2903 20Z" fill="#939598"/>
<path d="M20 0C8.95445 0 0 8.95445 0 20C0 31.0456 8.95445 40 20 40C31.0456 40 40 31.0456 40 20C39.9871 8.95949 31.0405 0.0129158 20 0ZM20 38.7097C9.66702 38.7097 1.29032 30.333 1.29032 20C1.29032 9.66702 9.66702 1.29032 20 1.29032C30.333 1.29032 38.7097 9.66702 38.7097 20C38.6983 30.3283 30.3283 38.6983 20 38.7097Z" fill="#231F20"/>
<path d="M20 1.93549C19.6437 1.93549 19.3548 2.22436 19.3548 2.58065C19.3548 2.93693 19.6437 3.22581 20 3.22581C24.4512 3.21384 28.7223 4.98299 31.8611 8.13886C32.1135 8.39088 32.5221 8.39088 32.7741 8.13886C33.0264 7.88653 33.0264 7.47795 32.7741 7.22593C29.3936 3.82718 24.7937 1.92225 20 1.93549Z" fill="#231F20"/>
<path d="M20 36.7742C15.6118 36.7846 11.3962 35.0649 8.26707 31.9884C8.01253 31.7389 7.60395 31.743 7.35446 31.9979C7.10496 32.2524 7.10937 32.661 7.36391 32.9105C10.734 36.2239 15.2741 38.0755 20 38.0645C20.3563 38.0645 20.6452 37.7756 20.6452 37.4194C20.6452 37.0631 20.3563 36.7742 20 36.7742Z" fill="#231F20"/>
<path d="M20 3.87097C19.6437 3.87097 19.3548 4.15984 19.3548 4.51613C19.3548 4.87242 19.6437 5.16129 20 5.16129C23.9374 5.15089 27.7158 6.7156 30.493 9.50699C30.6549 9.6749 30.8947 9.742 31.1202 9.68309C31.3458 9.62386 31.5222 9.44777 31.5811 9.22221C31.64 8.99666 31.5729 8.75693 31.4053 8.59469C28.3868 5.56042 24.2799 3.85931 20 3.87097V3.87097Z" fill="#231F20"/>
<path d="M20 34.8387C16.0626 34.8491 12.2842 33.2844 9.50699 30.493C9.25402 30.2486 8.85143 30.252 8.60256 30.5009C8.3537 30.7497 8.35023 31.152 8.59469 31.4053C11.6132 34.4396 15.7201 36.1404 20 36.129C20.3563 36.129 20.6452 35.8402 20.6452 35.4839C20.6452 35.1276 20.3563 34.8387 20 34.8387Z" fill="#231F20"/>
<path d="M20 10.3226C14.6554 10.3226 10.3226 14.6554 10.3226 20C10.3226 25.3446 14.6554 29.6774 20 29.6774C25.3446 29.6774 29.6774 25.3446 29.6774 20C29.6714 14.6579 25.3421 10.3286 20 10.3226ZM20 28.3871C15.3679 28.3871 11.6129 24.6321 11.6129 20C11.6129 15.3679 15.3679 11.6129 20 11.6129C24.6321 11.6129 28.3871 15.3679 28.3871 20C28.3817 24.6298 24.6299 28.3817 20 28.3871Z" fill="#231F20"/>
<path d="M20 18.0645C18.9311 18.0645 18.0645 18.9311 18.0645 20C18.0645 21.0689 18.9311 21.9355 20 21.9355C21.0689 21.9355 21.9355 21.0689 21.9355 20C21.9355 18.9311 21.0689 18.0645 20 18.0645ZM20 20.6452C19.6437 20.6452 19.3548 20.3563 19.3548 20C19.3548 19.6437 19.6437 19.3548 20 19.3548C20.3563 19.3548 20.6452 19.6437 20.6452 20C20.6452 20.3563 20.3563 20.6452 20 20.6452Z" fill="#231F20"/>
</svg>
