<?xml version="1.0" encoding="utf-8"?>
<!-- Generator: Adobe Illustrator 18.0.0, SVG Export Plug-In . SVG Version: 6.00 Build 0)  -->
<!DOCTYPE svg PUBLIC "-//W3C//DTD SVG 1.1//EN" "http://www.w3.org/Graphics/SVG/1.1/DTD/svg11.dtd">
<svg version="1.1" id="Calque_1" xmlns="http://www.w3.org/2000/svg" xmlns:xlink="http://www.w3.org/1999/xlink" x="0px" y="0px"
	 viewBox="0 0 142 115" enable-background="new 0 0 142 115" xml:space="preserve">
<path fill="#C9DECE" d="M142,97.5c-0.3-3.5-0.6-8.2-0.9-10.8c-1.7-17.7-3.1-32.5-5.4-48.4c-1.3-9.1-3.3-26.4-4.1-33.4
	c-0.2-1.5-0.9-2.8-2.1-3.7c-1.2-0.9-2.7-1.3-4.1-1.1C120,0.7,110,2,104.4,2.6c-9.5,1-19.3,2.7-28.7,4.3l-5.2,0.9
	c-8.5,1.4-17.4,2.2-25.9,3c-6,0.5-12.2,1.1-18.3,1.9s-16,2.1-21.3,2.8C2,15.8-0.3,18.6,0,21.7C0.5,26.9,1.1,34,1.4,38.4
	c0.4,5.7,1,11.5,1.5,17c0.5,5,1.1,10.1,1.4,15.2c0.5,7.7,3,32.2,3.8,39.5c0.3,2.4,2.3,4.2,4.7,4.3h0.4c7.4-0.6,21-1.7,28.7-2.5
	c4.4-0.4,8.9-0.8,13.2-1.2c8.8-0.8,17.9-1.5,26.6-2.6c16.5-2,47-4.9,56-5.7C140.3,102.3,142.1,100,142,97.5z"/>
<path fill="#9FB7A2" d="M18.9,110.6c-0.9,0-1.5-0.7-1.5-1.5c0.1-4.5-0.2-8.9-0.6-13.4c-0.4-3.5-0.7-7-1-10.4
	c-0.5-5.5-1-11.2-1.7-16.8c-1.2-10.1-1.7-19.8-2.2-30v-0.2c-0.2-3.1-0.6-6.2-1.1-9.2c-0.6-3.5-1-7.1-1.2-10.7c0-0.9,0.7-1.6,1.5-1.6
	c0.9,0,1.6,0.7,1.6,1.5c0.2,3.4,0.5,6.8,1.1,10.2c0.6,3.2,0.9,6.3,1.2,9.5v0.2C15.4,48.4,16,58,17.1,68c0.7,5.6,1.2,11.4,1.7,16.9
	c0.3,3.5,0.6,7,1,10.4c0.5,4.6,0.7,9.2,0.6,13.8C20.4,109.9,19.7,110.6,18.9,110.6z"/>
<path fill="#F2F2F2" d="M123,60.8c-0.5-3.7-1-6.9-1.2-8.8c-1.6-13.1-2.9-24.4-3.8-34.7c0-0.4-0.2-0.8-0.6-1.1
	c-0.3-0.3-0.7-0.4-1.2-0.3c-0.2,0-23.9,3-35.9,4.6c-5.6,0.8-11.5,1.3-17.6,1.9c-11,1.1-22.4,2.2-32.5,4.5c-0.7,0.2-1.2,0.8-1.2,1.5
	c0.6,12.4,1.7,24.2,2.6,34.1l0.2,1.9c1,10.4,2,21.2,3.6,31.2c0.1,0.8,0.8,1.3,1.5,1.3h0.1c0,0,20.5-1.8,30-2.6
	c4.7-0.4,9.6-0.9,14.3-1.4c4.7-0.5,9.4-1,14.1-1.4c2.7-0.2,5.5-0.4,8.3-0.6c7-0.5,14.3-1,21.1-2.2c0.7-0.1,1.2-0.7,1.3-1.4
	C126.3,84.2,124.8,73.5,123,60.8z"/>
<path fill="#1ED760" d="M120.9,52.2c-0.3-0.3-0.7-0.5-1.1-0.5c-0.4,0-0.8,0.1-1.1,0.4c-0.8,0.7-1.7,1.3-2.6,1.8
	c-1,0.6-1.9,1.2-2.8,1.8c-1.7,1.3-3.3,2.8-4.9,4.3c-1.6,1.4-3,2.7-4.6,4c1.4-15.4-0.9-17.5-1.7-18.2c-0.7-0.7-1.7-0.9-2.7-0.6
	C95.3,46.2,85.8,59,80.2,68c0.4-4.9,0.9-11.2,1.1-15.1c0-0.2,0-0.5,0.1-0.8c0.3-3.3,0.4-6.6-1.3-8.1c-3.1-3-7,0.7-9.2,2.7
	c-0.4,0.3-0.7,0.6-0.9,0.8c-7.6,6.2-14.7,12.9-21.4,20.1l-3.4,3.6c-3.6,3.9-7.3,7.9-10.5,11.7c-0.3,0.3-0.4,0.7-0.4,1.1
	c0,0.4,0.2,0.8,0.5,1.1c0.6,0.6,1.6,0.5,2.2-0.2c3.2-3.7,6.9-7.7,10.4-11.6c1.1-1.2,2.3-2.5,3.4-3.6c2.7-3,5.8-6.1,9.1-9.2
	c1.1,0.8,2.4,1.3,3.8,1.2c1.8-0.1,3.5-0.6,5.2-1.3c1.1-0.5,2.3-0.9,3.4-1.1c0.7,0.7,1.7,1.1,2.7,1.1h0c0.9,0,1.8-0.2,2.6-0.7
	c-0.5,7-1.2,14.9-1.2,15c-0.1,0.7,0.4,1.4,1.1,1.6c0.7,0.2,1.5-0.1,1.8-0.8c2.3-4.8,7.4-12.3,12-18.3c0.9,0.7,2,1,3.2,1.1
	c1.4-0.1,2.8-0.5,4-1.2c0.8-0.4,1.7-0.8,2.6-1c0,2.8-0.3,6.5-0.8,11c-0.1,0.6,0.2,1.2,0.7,1.5c0.5,0.3,1.2,0.3,1.7-0.1
	c2.7-1.9,5.3-4,7.7-6.3c1.5-1.4,3.2-2.9,4.8-4.1c0.8-0.6,1.6-1.1,2.4-1.6c1.1-0.6,2.1-1.3,3.1-2.1C121.4,53.7,121.4,52.8,120.9,52.2
	z M77.9,55.7c-0.7,0.9-1.7,1.5-2.8,1.6c-0.3,0-0.6-0.1-0.8-0.4c-0.3-0.5-0.8-0.8-1.4-0.8c-1.8,0.2-3.6,0.6-5.2,1.4
	c-2.4,1-4,1.5-5.4,0.8c3.1-2.8,6.3-5.6,9.7-8.4c0.3-0.2,0.7-0.6,1.1-1c1.3-1.2,3.9-3.7,4.9-2.7c0.3,0.3,0.7,1.5,0.3,5.7
	c0,0.3,0,0.6-0.1,0.8c-0.1,0.8-0.1,1.8-0.2,2.8C78,55.5,78,55.6,77.9,55.7z M97.2,54.3c-1.6,0.8-2.6,1.3-3.9,0.5
	c2.9-3.6,5.5-6.3,6.8-6.7c0.4,0.4,0.8,2,0.9,4.8C99.8,53.2,98.4,53.6,97.2,54.3L97.2,54.3z"/>
<path fill="#FCD400" d="M49.9,51.3c-2.4,0.1-4.6-1.5-5.4-3.7c-0.9-2.6,0.2-5.4,2.5-6.7c2.3-1.4,4.6-1.5,6.5-0.2
	c1.9,1.6,2.8,4.1,2.2,6.5c-0.6,2.3-2.6,3.9-5,4.1C50.4,51.3,50.2,51.3,49.9,51.3z M50.6,42.8c-0.7,0-1.3,0.3-1.9,0.7
	c-1.1,0.6-1.6,1.9-1.2,3.1c0.4,1.2,1.6,1.9,2.9,1.7c1.1,0,2-0.8,2.3-1.8c0.3-1.2-0.1-2.4-1-3.2C51.3,42.9,51,42.8,50.6,42.8
	L50.6,42.8z"/>
<path fill="#9FB7A2" d="M90.4,43.9c-0.7,0-1.4-0.5-1.5-1.3c-0.1-0.7,0.3-1.5,1-1.7c1.4-0.5,3-0.7,4.5-0.5c0.9,0,1.5,0.7,1.5,1.6
	c0,0.9-0.7,1.5-1.6,1.5c-1.1-0.1-2.2,0-3.3,0.3C90.7,43.9,90.6,43.9,90.4,43.9z"/>
<path fill="#9FB7A2" d="M101.1,32.7c-0.9,0.1-1.6-0.6-1.7-1.4c-0.1-0.9,0.6-1.6,1.4-1.7c0.8-0.1,1.7-0.3,2.7-0.4
	c1.5-0.2,3.1-0.5,4.5-0.8c0.5-0.1,1.1,0,1.5,0.4c0.4,0.4,0.5,1,0.3,1.5c-0.2,0.5-0.6,0.9-1.2,1c-1.5,0.3-3.2,0.6-4.7,0.8
	c-0.9,0.1-1.8,0.3-2.6,0.4L101.1,32.7z"/>
<path fill="#9FB7A2" d="M109,36.1c-0.8,0-1.4-0.6-1.5-1.3c-0.1-0.8,0.3-1.5,1.1-1.7c1-0.3,1.9-0.5,2.9-0.6c0.6-0.1,1.1,0.2,1.4,0.6
	c0.3,0.4,0.4,1,0.2,1.5s-0.7,0.9-1.3,0.9c-0.8,0.1-1.6,0.2-2.3,0.5C109.4,36.1,109.2,36.1,109,36.1z"/>
<path fill="#9FB7A2" d="M60.7,36.3L60.7,36.3c-0.9,0-1.6-0.7-1.6-1.5c0-0.9,0.7-1.5,1.5-1.5c1.6-0.1,3.2-0.2,4.7-0.5
	c1-0.1,1.9-0.3,2.9-0.4c0.6-0.1,1.1,0.2,1.4,0.6s0.4,1,0.2,1.5c-0.2,0.5-0.7,0.8-1.3,0.9c-0.8,0.1-1.7,0.2-2.7,0.4
	C64.2,36.1,62.5,36.3,60.7,36.3z"/>
<path fill="#9FB7A2" d="M36.7,60c-0.9,0-1.6-0.7-1.6-1.5c0-0.9,0.7-1.6,1.5-1.6c1.5-0.1,3-0.4,4.4-0.8c0.8-0.2,1.6,0.3,1.8,1.1
	c0.2,0.8-0.2,1.6-1,1.9C40.2,59.6,38.5,59.9,36.7,60L36.7,60z"/>
<path fill="#9FB7A2" d="M35.9,46.8c-0.3,0-0.5,0-0.8-0.1c-0.8-0.4-1.2-1.3-1.1-2.1c0.1-0.9,0.8-1.5,1.7-1.7c0.9-0.1,1.7,0.3,2.1,1.1
	c0.4,0.8,0.2,1.7-0.4,2.3C37,46.7,36.5,46.8,35.9,46.8z"/>
<path fill="#9FB7A2" d="M113.5,49.6c-0.3,0-0.6,0-1,0c-0.9-0.1-1.5-0.8-1.4-1.7c0.1-0.9,0.8-1.5,1.7-1.4c1.7,0,3.4-0.1,5.1-0.5
	c0.8-0.1,1.6,0.4,1.8,1.2c0.2,0.8-0.4,1.6-1.2,1.8C116.9,49.4,115.2,49.6,113.5,49.6z"/>
<path fill="#9FB7A2" d="M24.9,108.5c-0.6,0-1.2-0.4-1.4-1c-0.2-0.6-0.1-1.3,0.4-1.7c1.1-1,2.2-2.1,3.3-3.1c1.5-1.5,3.2-3,4.9-4.4
	c0.7-0.5,1.6-0.4,2.1,0.3c0.5,0.6,0.5,1.5-0.1,2.1c-1.6,1.3-3.2,2.8-4.7,4.3c-1.1,1-2.2,2.1-3.4,3.2
	C25.6,108.4,25.3,108.5,24.9,108.5z"/>
<path fill="#9FB7A2" d="M25.4,26.2c-0.4,0-0.9-0.2-1.1-0.5c-1.5-1.4-3.1-2.7-4.9-3.7c-0.9-0.6-1.9-1.2-2.7-1.8
	c-0.7-0.5-0.8-1.5-0.3-2.2c0.2-0.3,0.6-0.6,1-0.6s0.8,0,1.2,0.3c0.8,0.6,1.6,1.1,2.6,1.7c2,1.2,3.9,2.6,5.5,4.3
	c0.6,0.6,0.5,1.6-0.1,2.2C26.2,26,25.8,26.2,25.4,26.2z"/>
<path fill="#9FB7A2" d="M120.5,14.6c-0.3,0-0.5-0.1-0.8-0.2c-0.4-0.2-0.6-0.5-0.7-0.9c-0.1-0.4-0.1-0.8,0.1-1.2
	c1.1-1.8,2.4-3.6,3.8-5.2c0.8-1,1.7-2,2.3-3c0.5-0.7,1.5-0.9,2.2-0.4c0.7,0.5,0.9,1.5,0.4,2.2c-0.8,1.1-1.6,2.1-2.5,3.2
	c-1.3,1.5-2.5,3.1-3.5,4.7C121.5,14.3,121,14.6,120.5,14.6z"/>
<path fill="#9FB7A2" d="M136.3,97.8c-0.4,0-0.8-0.2-1.1-0.4c-0.4-0.5-3-2.3-4.5-3.3c-0.9-0.6-1.6-1.2-2-1.5
	c-0.5-0.3-0.7-0.9-0.7-1.4c0.1-0.6,0.4-1,1-1.3c0.5-0.2,1.1-0.1,1.6,0.2c0.4,0.3,1.1,0.8,2,1.4c1.7,1.1,3.3,2.4,4.8,3.7
	c0.6,0.6,0.6,1.6,0,2.2C137.1,97.7,136.7,97.8,136.3,97.8z"/>
</svg>
